<?xml version="1.0" encoding="UTF-8" standalone="no"?>
<svg width="278px" height="97px" viewBox="0 0 278 97" version="1.1" xmlns="http://www.w3.org/2000/svg" xmlns:xlink="http://www.w3.org/1999/xlink">
    <!-- Generator: Sketch 39.1 (31720) - http://www.bohemiancoding.com/sketch -->
    <title>icon_toparrow</title>
    <desc>Created with Sketch.</desc>
    <defs></defs>
    <g id="Page-1" stroke="none" stroke-width="1" fill="none" fill-rule="evenodd">
        <g id="Artboard" transform="translate(-653.000000, -2550.000000)" fill="#FFFFFF">
            <path d="M653,2647.2063 L686.863,2622.8203 L720.839,2598.5933 L737.842,2586.5013 L754.883,2574.4653 L788.966,2550.3913 L789.521,2550.0003 L790.084,2550.3813 L807.818,2562.3953 L825.534,2574.4363 L843.249,2586.4763 L860.945,2598.5463 L896.27,2622.7853 C908.004,2630.9253 919.774,2639.0113 931.471,2647.2063 C919.512,2639.3993 907.626,2631.4843 895.704,2623.6223 L860.059,2599.8573 L842.27,2587.9243 L824.501,2575.9623 L806.732,2564.0003 L788.981,2552.0123 L790.099,2552.0013 L755.916,2575.9333 L738.824,2587.8993 L721.694,2599.8093 L687.403,2623.5873 L653,2647.2063 Z" id="icon_toparrow"></path>
        </g>
    </g>
</svg>