<?xml version="1.0" encoding="UTF-8" standalone="no"?>
<svg width="69px" height="122px" viewBox="0 0 69 122" version="1.1" xmlns="http://www.w3.org/2000/svg" xmlns:xlink="http://www.w3.org/1999/xlink">
    <!-- Generator: Sketch 39.1 (31720) - http://www.bohemiancoding.com/sketch -->
    <title>icon_phone</title>
    <desc>Created with Sketch.</desc>
    <defs></defs>
    <g id="Page-1" stroke="none" stroke-width="1" fill="none" fill-rule="evenodd">
        <g id="Artboard" transform="translate(-321.000000, -2291.000000)" fill="#FFFFFF">
            <path d="M327.653475,2384.66685 L383.340869,2384.66685 L383.340869,2305.983 L327.653475,2305.983 L327.653475,2384.66685 Z M355.510896,2404.06665 C352.3867,2404.06665 349.828951,2401.53136 349.828951,2398.41215 C349.828951,2395.28795 352.3867,2392.75183 355.510896,2392.75183 C358.607644,2392.75183 361.143767,2395.28795 361.143767,2398.41215 C361.143767,2401.53136 358.607644,2404.06665 355.510896,2404.06665 L355.510896,2404.06665 Z M342.852742,2296.39914 L368.146592,2296.39914 C368.796219,2296.39914 369.31775,2297.35403 369.31775,2298.52519 C369.31775,2299.71797 368.796219,2300.67203 368.146592,2300.67203 L342.852742,2300.67203 C342.198125,2300.67203 341.699052,2299.71797 341.699052,2298.52519 C341.699052,2297.35403 342.198125,2296.39914 342.852742,2296.39914 L342.852742,2296.39914 Z M381.132471,2291 L329.867695,2291 C324.96763,2291 321,2294.99009 321,2299.8677 L321,2403.96184 C321,2408.86191 324.96763,2412.82954 329.867695,2412.82954 L381.132471,2412.82954 C386.031704,2412.82954 390.000166,2408.86191 390.000166,2403.96184 L390.000166,2299.8677 C390.000166,2294.99009 386.031704,2291 381.132471,2291 L381.132471,2291 Z" id="icon_phone"></path>
        </g>
    </g>
</svg>