<?xml version="1.0" encoding="UTF-8" standalone="no"?>
<svg width="114px" height="102px" viewBox="0 0 114 102" version="1.1" xmlns="http://www.w3.org/2000/svg" xmlns:xlink="http://www.w3.org/1999/xlink">
    <!-- Generator: Sketch 39.1 (31720) - http://www.bohemiancoding.com/sketch -->
    <title>icon_caminadora</title>
    <desc>Created with Sketch.</desc>
    <defs></defs>
    <g id="Page-1" stroke="none" stroke-width="1" fill="none" fill-rule="evenodd">
        <g id="Artboard" transform="translate(-933.000000, -2676.000000)" fill="#FFFFFF">
            <g id="icon_caminadora" transform="translate(933.000000, 2676.000000)">
                <path d="M44.0742307,20.9867902 C49.6602307,20.9867902 54.1894423,16.4739122 54.1894423,10.9078634 C54.1894423,5.34181463 49.6602307,0.828936585 44.0742307,0.828936585 C38.4890628,0.828936585 33.9606832,5.34181463 33.9606832,10.9078634 C33.9606832,16.4739122 38.4890628,20.9867902 44.0742307,20.9867902" id="Fill-1"></path>
                <path d="M47.3774847,34.1571463 C50.8124628,40.0358293 54.0726964,46.0165122 57.2047839,52.0635366 C52.5757182,54.4228049 47.0970613,58.5567073 44.3044774,60.8139756 C41.5118934,63.0712439 36.3045066,74.6080244 33.6267547,80.1251463 C30.7509591,86.0477805 40.0049299,90.345878 42.8707401,84.4464634 C45.2322876,79.5844634 49.2089737,69.908561 51.5247547,68.0087073 C53.8397036,66.1096829 61.4394263,60.750122 67.2376161,58.7366585 C67.5230321,58.6371463 67.7826526,58.518561 68.0297912,58.3875366 C75.1269153,67.3643659 89.0282584,71.6044146 100.885091,64.6990976 C107.133455,61.0610976 101.481718,52.0892439 95.2150467,55.7388537 C86.5302438,60.799878 77.4917912,54.3290976 73.3986088,46.2254878 C69.3070905,38.121878 66.4054993,32.4173415 63.0886818,26.6788049 C69.5675431,24.6197317 75.4913825,26.4996829 80.1504044,33.0028049 C83.9390321,38.2927073 92.8010759,33.2200732 88.9700102,27.8679756 C79.9523606,15.2838293 66.5061854,12.1599756 53.0450321,20.123439 C52.4858496,20.4543171 49.9595431,21.8433415 49.3895431,22.1791951 C41.0217766,27.1307561 33.2448131,26.1920244 27.4383022,18.0850976 C23.6471781,12.7943659 14.7867985,17.8678293 18.6211927,23.2182683 C26.0303606,33.5617317 36.4326526,37.4990976 47.3774847,34.1571463" id="Fill-4"></path>
                <path d="M108.664051,92.1517756 L17.1470146,92.1517756 L9.93172993,51.0573854 L28.0976715,51.0573854 C30.6298029,51.0573854 32.682635,49.0107512 32.682635,46.4889463 C32.682635,43.9646537 30.6298029,41.9180195 28.0976715,41.9180195 L4.58454745,41.9180195 C2.05241606,41.9180195 -0.000416058394,43.9646537 -0.000416058394,46.4889463 L-0.000416058394,47.1108976 C-0.000416058394,47.3746049 0.0228832117,47.6391415 0.068649635,47.8987024 L8.77758394,97.509678 C9.16118978,99.6956293 11.0667372,101.291141 13.295146,101.291141 L108.664051,101.291141 C111.196182,101.291141 113.249847,99.2461659 113.249847,96.7218732 C113.249847,94.1984098 111.196182,92.1517756 108.664051,92.1517756" id="Fill-6"></path>
            </g>
        </g>
    </g>
</svg>