<?xml version="1.0" encoding="UTF-8" standalone="no"?>
<svg width="83px" height="126px" viewBox="0 0 83 126" version="1.1" xmlns="http://www.w3.org/2000/svg" xmlns:xlink="http://www.w3.org/1999/xlink">
    <!-- Generator: Sketch 39.1 (31720) - http://www.bohemiancoding.com/sketch -->
    <title>icon_door</title>
    <desc>Created with Sketch.</desc>
    <defs></defs>
    <g id="Page-1" stroke="none" stroke-width="1" fill="none" fill-rule="evenodd">
        <g id="Artboard" transform="translate(-1174.000000, -2289.000000)" fill="#FFFFFF">
            <path d="M1182.6297,2396.77702 L1182.6297,2306.8122 L1203.06578,2306.8122 L1203.06578,2396.79432 L1182.6297,2396.77702 Z M1212.8343,2346.00396 C1215.14022,2346.00396 1217.00896,2348.44079 1217.00896,2351.44667 C1217.00896,2354.4542 1215.14022,2356.8902 1212.8343,2356.8902 C1210.52756,2356.8902 1208.65801,2354.4542 1208.65801,2351.44667 C1208.65801,2348.44079 1210.52756,2346.00396 1212.8343,2346.00396 L1212.8343,2346.00396 Z M1203.06578,2289.00008 L1203.06578,2298.16349 L1174.00016,2298.16349 L1174.00016,2405.41914 L1203.06578,2405.4422 L1203.06578,2414.71679 L1256.13729,2405.16467 L1256.19153,2298.61973 L1203.06578,2289.00008 Z" id="icon_door"></path>
        </g>
    </g>
</svg>