<?xml version="1.0" encoding="UTF-8" standalone="no"?>
<svg width="117px" height="120px" viewBox="0 0 117 120" version="1.1" xmlns="http://www.w3.org/2000/svg" xmlns:xlink="http://www.w3.org/1999/xlink">
    <!-- Generator: Sketch 39.1 (31720) - http://www.bohemiancoding.com/sketch -->
    <title>icon_km</title>
    <desc>Created with Sketch.</desc>
    <defs></defs>
    <g id="Page-1" stroke="none" stroke-width="1" fill="none" fill-rule="evenodd">
        <g id="Artboard" transform="translate(-732.000000, -2293.000000)" fill="#FFFFFF">
            <path d="M834.802597,2350.09348 C834.802597,2350.09348 818.452058,2341.94271 795.67746,2341.94271 C795.67746,2341.94271 764.143014,2342.52509 764.143014,2336.89684 C764.143014,2336.89684 763.559698,2333.77264 777.380007,2330.08537 C777.380007,2330.08537 795.676619,2326.53572 796.211957,2308.91334 L812.028,2308.91334 L788.085086,2293.00034 L764.727173,2308.91334 L781.731734,2308.91334 C782.272964,2310.59166 783.01705,2315.05684 777.282367,2317.3746 C777.282367,2317.3746 762.342561,2322.18719 750.469165,2324.90439 C750.469165,2324.90439 732.001683,2327.50495 732.001683,2340.8946 C732.001683,2340.8946 731.234871,2360.33964 766.272583,2360.33964 C771.491288,2360.56034 796.234683,2360.69712 796.483835,2367.5774 C796.537705,2369.07027 795.647158,2370.4725 794.480525,2371.41152 C785.914273,2378.30187 774.572007,2380.61964 765.716201,2387.33208 C757.74,2393.37824 748.376633,2402.16425 748.376633,2412.96929 L823.512518,2412.96929 C823.512518,2412.96929 825.264151,2400.35502 843.172727,2384.44201 C843.172727,2384.44201 848.428468,2379.68733 848.428468,2369.79027 C848.428468,2369.79027 848.234029,2356.69097 834.802597,2350.09348" id="icon_km"></path>
        </g>
    </g>
</svg>