<?xml version="1.0" encoding="UTF-8" standalone="no"?>
<svg width="165px" height="81px" viewBox="0 0 165 81" version="1.1" xmlns="http://www.w3.org/2000/svg" xmlns:xlink="http://www.w3.org/1999/xlink">
    <!-- Generator: Sketch 39.1 (31720) - http://www.bohemiancoding.com/sketch -->
    <title>icon_counter</title>
    <desc>Created with Sketch.</desc>
    <defs>
        <polygon id="path-1" points="51.6153846 81 0 81 0 40.5001688 0 0.0003375 51.6153846 0.0003375"></polygon>
        <polygon id="path-3" points="0 81 51.6153846 81 51.6153846 0.0003375 0 0.0003375"></polygon>
        <polygon id="path-5" points="0 81 51.6153846 81 51.6153846 40.5001688 51.6153846 0.0003375 2.40491387e-14 0.0003375 2.40491387e-14 81"></polygon>
    </defs>
    <g id="Page-1" stroke="none" stroke-width="1" fill="none" fill-rule="evenodd">
        <g id="Artboard" transform="translate(-487.000000, -2688.000000)">
            <g id="icon_counter" transform="translate(487.000000, 2688.000000)">
                <g id="Group-3">
                    <mask id="mask-2" fill="white">
                        <use xlink:href="#path-1"></use>
                    </mask>
                    <g id="Clip-2"></g>
                    <path d="M34.6923077,50.63715 C34.6923077,54.4770563 34.078,57.2816813 32.5456154,59.051025 C31.0123846,60.8220563 28.5661538,61.70715 25.0529231,61.70715 C21.5388462,61.70715 18.6162308,60.8220563 17.0838462,59.051025 C15.5506154,57.2816813 14.3846154,54.4770563 14.3846154,50.63715 L14.3846154,31.2924938 C14.3846154,27.454275 15.5886923,24.6488063 17.1219231,22.8786188 C18.6543077,21.1084313 21.3958462,20.2233375 24.9099231,20.2233375 C28.4231538,20.2233375 30.9032308,21.1084313 32.4364615,22.8786188 C33.9688462,24.6488063 34.6923077,27.454275 34.6923077,31.2924938 L34.6923077,50.63715 Z M51.6153846,5.11515 C51.6153846,2.290275 49.3189231,0.0003375 46.486,0.0003375 L5.12938462,0.0003375 C2.29646154,0.0003375 0,2.290275 0,5.11515 L0,75.8846813 C0,78.7104 2.29646154,81.0003375 5.12938462,81.0003375 L46.486,81.0003375 C49.3189231,81.0003375 51.6153846,78.7104 51.6153846,75.8846813 L51.6153846,5.11515 Z" id="Fill-1" fill="#FFFFFF" mask="url(#mask-2)"></path>
                </g>
                <path d="M24.1153,25.7017219 C21.9474538,25.7017219 21.1537615,26.9875969 21.1537615,29.5593469 L21.1537615,52.3701281 C21.1537615,54.9418781 21.9474538,56.2277531 24.1153,56.2277531 C26.2823,56.2277531 27.0768385,54.9418781 27.0768385,52.3701281 L27.0768385,29.5593469 C27.0768385,26.9875969 26.2823,25.7017219 24.1153,25.7017219" id="Fill-4" fill="#FFFFFF"></path>
                <path d="M82.4999154,25.7017219 C80.3320692,25.7017219 78.6922231,26.9875969 78.6922231,29.5593469 L78.6922231,52.3701281 C78.6922231,54.9418781 80.3320692,56.2277531 82.4999154,56.2277531 C84.6669154,56.2277531 86.3076077,54.9418781 86.3076077,52.3701281 L86.3076077,29.5593469 C86.3076077,26.9875969 84.6669154,25.7017219 82.4999154,25.7017219" id="Fill-6" fill="#FFFFFF"></path>
                <g id="Group-10" transform="translate(57.538462, 0.000000)">
                    <mask id="mask-4" fill="white">
                        <use xlink:href="#path-3"></use>
                    </mask>
                    <g id="Clip-9"></g>
                    <path d="M34.6923077,50.63715 C34.6923077,54.4770563 34.2683846,57.2816813 32.736,59.051025 C31.2027692,60.8220563 28.8513077,61.70715 25.3380769,61.70715 C21.8248462,61.70715 19.1814615,60.8220563 17.6499231,59.051025 C16.1158462,57.2816813 15.2307692,54.4770563 15.2307692,50.63715 L15.2307692,31.2924938 C15.2307692,27.454275 16.2021538,24.6488063 17.7353846,22.8786188 C19.2677692,21.1084313 21.8933846,20.2233375 25.4066154,20.2233375 C28.9198462,20.2233375 31.152,21.1084313 32.6852308,22.8786188 C34.2176154,24.6488063 34.6923077,27.454275 34.6923077,31.2924938 L34.6923077,50.63715 Z M51.6153846,5.11515 C51.6153846,2.290275 49.3189231,0.0003375 46.486,0.0003375 L5.12938462,0.0003375 C2.29646154,0.0003375 0,2.290275 0,5.11515 L0,75.8846813 C0,78.7104 2.29646154,81.0003375 5.12938462,81.0003375 L46.486,81.0003375 C49.3189231,81.0003375 51.6153846,78.7104 51.6153846,75.8846813 L51.6153846,5.11515 Z" id="Fill-8" fill="#FFFFFF" mask="url(#mask-4)"></path>
                </g>
                <g id="Group-13" transform="translate(113.384615, 0.000000)">
                    <mask id="mask-6" fill="white">
                        <use xlink:href="#path-5"></use>
                    </mask>
                    <g id="Clip-12"></g>
                    <path d="M37.2307692,50.63715 C37.2307692,54.4770563 36.5741538,57.2816813 35.0417692,59.051025 C33.5085385,60.8220563 31.0403077,61.70715 27.5279231,61.70715 C24.0138462,61.70715 21.1225385,60.8220563 19.5901538,59.051025 C18.0569231,57.2816813 16.9230769,54.4770563 16.9230769,50.63715 L16.9230769,31.2924938 C16.9230769,27.454275 18.0848462,24.6488063 19.6180769,22.8786188 C21.1496154,21.1084313 23.8708462,20.2233375 27.3849231,20.2233375 C30.8981538,20.2233375 33.4095385,21.1084313 34.9427692,22.8786188 C36.4751538,24.6488063 37.2307692,27.454275 37.2307692,31.2924938 L37.2307692,50.63715 Z M51.6153846,5.11515 C51.6153846,2.290275 49.3189231,0.0003375 46.486,0.0003375 L5.12938462,0.0003375 C2.29646154,0.0003375 0,2.290275 0,5.11515 L0,75.8846813 C0,78.7104 2.29646154,81.0003375 5.12938462,81.0003375 L46.486,81.0003375 C49.3189231,81.0003375 51.6153846,78.7104 51.6153846,75.8846813 L51.6153846,5.11515 Z" id="Fill-11" fill="#FFFFFF" mask="url(#mask-6)"></path>
                </g>
                <path d="M140.461538,25.7017219 C138.293692,25.7017219 137.076923,26.9875969 137.076923,29.5593469 L137.076923,52.3701281 C137.076923,54.9418781 138.293692,56.2277531 140.461538,56.2277531 C142.628538,56.2277531 143.846154,54.9418781 143.846154,52.3701281 L143.846154,29.5593469 C143.846154,26.9875969 142.628538,25.7017219 140.461538,25.7017219" id="Fill-14" fill="#FFFFFF"></path>
            </g>
        </g>
    </g>
</svg>