<?xml version="1.0" encoding="UTF-8" standalone="no"?>
<svg width="165px" height="35px" viewBox="0 0 165 35" version="1.1" xmlns="http://www.w3.org/2000/svg" xmlns:xlink="http://www.w3.org/1999/xlink">
    <!-- Generator: Sketch 39.1 (31720) - http://www.bohemiancoding.com/sketch -->
    <title>sinlimiteslogo</title>
    <desc>Created with Sketch.</desc>
    <defs>
        <polygon id="path-1" points="0.507770548 27.6612903 17.795137 27.6612903 17.795137 0.293153226 0.507770548 0.293153226"></polygon>
    </defs>
    <g id="Page-1" stroke="none" stroke-width="1" fill="none" fill-rule="evenodd">
        <g id="Artboard" transform="translate(-230.000000, -106.000000)">
            <g id="sinlimiteslogo" transform="translate(230.000000, 106.000000)">
                <g id="Group-3" transform="translate(0.000000, 7.275879)" fill="#00E7FF">
                    <path d="M1.40933733,18.2701694 C2.50839555,20.1861371 3.86569007,21.1435565 5.47952568,21.1435565 C6.08753938,21.1435565 6.61248801,20.9804113 7.05380651,20.6529919 C7.49569007,20.3261371 7.75788185,19.9168629 7.84207705,19.4262984 C7.96130651,18.7257339 7.65786473,18.0370242 6.93062158,17.3590403 L5.92932021,16.4479113 C4.58841267,15.2567823 3.68373801,14.0825887 3.2141661,12.9258952 C2.74459418,11.7697661 2.63497089,10.4555726 2.8858613,8.98387903 C3.09267637,7.76960484 3.49104966,6.63605645 4.07928596,5.58492742 C4.66752226,4.53323387 5.39080993,3.61645968 6.24914897,2.83404032 C7.10692295,2.05162097 8.06640925,1.43178226 9.12591267,0.976782258 C10.1859812,0.521217742 11.2771284,0.293153226 12.3993545,0.293153226 C14.0832586,0.293153226 15.712351,0.748717742 17.287762,1.65984677 L15.9146455,9.72000806 C15.4806729,8.83202419 14.9410325,8.12525 14.2940291,7.59968548 C13.6470257,7.07412097 12.9604675,6.81162097 12.2360497,6.81162097 C11.6981045,6.81162097 11.2206216,6.96855645 10.8052962,7.28468548 C10.3882757,7.59968548 10.1424709,7.97960484 10.0667517,8.42331452 C9.94752226,9.12387903 10.3074709,9.82500806 11.1471627,10.5255726 L12.1608955,11.3667016 C13.4707243,12.4646855 14.3561866,13.5801694 14.8178476,14.7131532 C15.2795086,15.8467016 15.381786,17.1721855 15.1229846,18.6907339 C14.8997825,19.9992823 14.4855873,21.1960565 13.8792688,22.2821855 C13.2735154,23.368879 12.5332757,24.3150081 11.6591147,25.1211371 C10.7855188,25.9267016 9.79043322,26.5521855 8.67385788,26.9958952 C7.5578476,27.4390403 6.39098116,27.6614597 5.17551884,27.6614597 C3.49217979,27.6614597 1.76646062,27.28775 5.65068493e-05,26.5403306 L1.40933733,18.2701694 Z" id="Fill-1"></path>
                </g>
                <polygon id="Fill-4" fill="#00E7FF" points="23.5982209 34.4818306 16.4772277 34.4818306 20.9791284 8.05965323 28.1001216 8.05965323"></polygon>
                <path d="M27.315863,34.4818306 L31.8177637,8.05965323 L38.6228836,8.05965323 L40.689339,17.7665081 C40.7921815,18.2570726 40.8842877,18.7826371 40.9639623,19.3437661 C41.0442021,19.9043306 41.1250068,20.45925 41.2069418,21.0079597 C41.2888767,21.5572339 41.3561199,22.0890081 41.4086712,22.6027177 C41.4617877,23.1164274 41.5109486,23.5838468 41.5567192,24.0038468 C41.7290651,22.1590081 41.8782432,20.42425 42.0025582,18.8007016 C42.1263082,17.1765887 42.2783116,15.83925 42.4568733,14.788121 L43.6033973,8.05965323 L50.4785856,8.05965323 L45.9766849,34.4818306 L39.1173185,34.4818306 L37.183089,24.7749758 C36.7745445,22.7664274 36.4795788,20.9204597 36.2970616,19.2387661 C36.1224555,21.0841694 35.9523699,22.7020726 35.7856747,24.0919113 C35.6189795,25.4823145 35.4466336,26.7022339 35.2669418,27.7539274 L34.1209829,34.4818306 L27.315863,34.4818306 Z" id="Fill-6" fill="#00E7FF"></path>
                <polygon id="Fill-8" fill="#FFFFFF" points="62.147024 34.4818306 49.6595753 34.4818306 54.161476 8.05965323 61.2824692 8.05965323 57.8609795 28.1389274 63.2274349 28.1389274"></polygon>
                <path d="M78.8604503,0 L74.5128134,5.95733871 L70.5143887,5.95733871 L73.2832243,0 L78.8604503,0 Z M71.4071969,34.4817742 L64.2862038,34.4817742 L68.7881045,8.05959677 L75.9090976,8.05959677 L71.4071969,34.4817742 Z" id="Fill-10" fill="#FFFFFF"></path>
                <path d="M102.379505,34.4818306 L94.9081695,34.4818306 L96.4355497,22.4271532 C96.5282209,21.6097339 96.6350188,20.8098145 96.7570736,20.0268306 C96.8785634,19.2444113 96.9859264,18.4444919 97.0785976,17.6265081 C96.8486147,18.5607823 96.5982894,19.4487661 96.3264914,20.2893306 C96.0546935,21.1304597 95.7823305,21.9365887 95.5110976,22.7077177 L91.2600873,34.4818306 L85.4376216,34.4818306 L85.5495051,22.7077177 C85.5630668,21.9365887 85.5839743,21.1304597 85.6105325,20.2893306 C85.6365257,19.4487661 85.6947277,18.5607823 85.7834435,17.6265081 C85.6207038,18.4444919 85.449488,19.2444113 85.2697962,20.0268306 C85.0884092,20.8098145 84.9058921,21.6097339 84.7205497,22.4271532 L82.0703784,34.4818306 L74.493375,34.4818306 L82.0822449,8.05965323 L90.9566455,8.05965323 L90.9402586,17.6265081 C90.9413887,18.3039274 90.9142654,19.0107016 90.8594538,19.7462661 C90.8040771,20.4823952 90.7396592,21.2710242 90.6667654,22.1115887 C90.8764058,21.2941694 91.0973476,20.51175 91.3295908,19.7637661 C91.562399,19.0163468 91.7952072,18.3039274 92.0274503,17.6265081 L95.481714,8.05965323 L104.285481,8.05965323 L102.379505,34.4818306 Z" id="Fill-12" fill="#FFFFFF"></path>
                <polygon id="Fill-14" fill="#FFFFFF" points="112.62188 34.4818306 105.500887 34.4818306 110.002788 8.05965323 117.123781 8.05965323"></polygon>
                <polygon id="Fill-16" fill="#FFFFFF" points="125.66982 34.4818306 118.514358 34.4818306 121.935283 14.4025565 117.901259 14.4025565 118.982235 8.05965323 134.20518 8.05965323 133.124769 14.4025565 129.090745 14.4025565"></polygon>
                <polygon id="Fill-18" fill="#FFFFFF" points="131.56275 34.4818306 136.064651 8.05965323 149.323983 8.05965323 148.267305 14.2619919 142.128401 14.2619919 141.465575 18.1520726 146.972733 18.1520726 145.95787 24.1094113 140.450712 24.1094113 139.764154 28.1389274 145.902493 28.1389274 144.822082 34.4818306"></polygon>
                <g id="Group-22" transform="translate(146.917808, 7.275879)">
                    <mask id="mask-2" fill="white">
                        <use xlink:href="#path-1"></use>
                    </mask>
                    <g id="Clip-21"></g>
                    <path d="M1.91705137,18.2701694 C3.01610959,20.1861371 4.37340411,21.1435565 5.98723973,21.1435565 C6.59525342,21.1435565 7.12020205,20.9804113 7.56152055,20.6529919 C8.00340411,20.3261371 8.26559589,19.9168629 8.3497911,19.4262984 C8.46902055,18.7257339 8.16557877,18.0370242 7.43833562,17.3590403 L6.43703425,16.4479113 C5.09612671,15.2567823 4.19145205,14.0825887 3.72188014,12.9258952 C3.25230822,11.7697661 3.14268493,10.4555726 3.39357534,8.98387903 C3.60039041,7.76960484 3.9987637,6.63605645 4.587,5.58492742 C5.1752363,4.53323387 5.89852397,3.61645968 6.75686301,2.83404032 C7.61463699,2.05162097 8.57412329,1.43178226 9.63362671,0.976782258 C10.6936952,0.521217742 11.7848425,0.293153226 12.9070685,0.293153226 C14.5909726,0.293153226 16.2200651,0.748717742 17.795476,1.65984677 L16.4223596,9.72000806 C15.988387,8.83202419 15.4487466,8.12525 14.8017432,7.59968548 C14.1547397,7.07412097 13.4681815,6.81162097 12.7437637,6.81162097 C12.2058185,6.81162097 11.7283356,6.96855645 11.3130103,7.28468548 C10.8959897,7.59968548 10.6501849,7.97960484 10.5744658,8.42331452 C10.4552363,9.12387903 10.8151849,9.82500806 11.6548767,10.5255726 L12.6686096,11.3667016 C13.9784384,12.4646855 14.8639007,13.5801694 15.3255616,14.7131532 C15.7872226,15.8467016 15.8895,17.1721855 15.6306986,18.6907339 C15.4074966,19.9992823 14.9933014,21.1960565 14.3869829,22.2821855 C13.7812295,23.368879 13.0409897,24.3150081 12.1668288,25.1211371 C11.2932329,25.9267016 10.2981473,26.5521855 9.18157192,26.9958952 C8.06556164,27.4390403 6.89869521,27.6614597 5.68323288,27.6614597 C3.99989384,27.6614597 2.27417466,27.28775 0.507770548,26.5403306 L1.91705137,18.2701694 Z" id="Fill-20" fill="#FFFFFF" mask="url(#mask-2)"></path>
                </g>
            </g>
        </g>
    </g>
</svg>